<?xml version="1.0" standalone="no"?>
<!DOCTYPE svg PUBLIC "-//W3C//DTD SVG 20010904//EN"
 "http://www.w3.org/TR/2001/REC-SVG-20010904/DTD/svg10.dtd">
<svg version="1.0" xmlns="http://www.w3.org/2000/svg"
 width="512.000000pt" height="512.000000pt" viewBox="0 0 512.000000 512.000000"
 preserveAspectRatio="xMidYMid meet">
<metadata>
Created by potrace 1.14, written by Peter Selinger 2001-2017
</metadata>
<g transform="translate(0.000000,512.000000) scale(0.100000,-0.100000)"
fill="#000000" stroke="none">
<path d="M2120 4614 c-212 -37 -400 -159 -522 -337 -40 -59 -98 -178 -98 -203
0 -9 -12 -14 -35 -14 -49 0 -85 -19 -91 -49 -10 -47 -13 -51 -36 -51 -71 -1
-167 -86 -187 -165 -32 -126 54 -259 180 -280 l39 -7 0 -488 c0 -312 4 -508
11 -542 23 -114 108 -249 207 -331 l33 -27 -57 -25 c-31 -14 -59 -25 -63 -25
-16 0 -192 -122 -244 -170 -141 -129 -256 -328 -301 -522 -18 -80 -23 -123
-41 -398 -3 -41 -7 -104 -9 -140 -20 -278 -19 -304 4 -325 22 -20 37 -20 1441
-20 1348 0 1419 1 1436 18 17 17 18 55 20 580 1 309 2 570 2 580 1 11 9 17 26
17 21 0 25 -5 25 -29 0 -34 31 -61 70 -61 56 0 69 32 65 170 -1 58 -3 111 -4
118 0 7 -17 20 -38 28 -34 15 -38 14 -62 -4 -14 -10 -28 -32 -31 -48 -7 -38
-50 -48 -50 -12 -5 252 -6 264 -24 301 -19 39 -81 97 -103 97 -10 0 -13 56
-13 259 0 145 4 271 10 285 8 22 62 66 81 66 4 0 12 -14 19 -31 17 -41 79 -81
128 -82 36 -1 131 37 257 104 58 30 75 63 57 104 -9 20 -43 41 -138 86 -69 32
-140 61 -158 63 -49 6 -110 -26 -139 -71 -17 -27 -32 -39 -51 -41 -86 -7 -185
-95 -201 -181 -2 -9 -4 -135 -4 -281 l-1 -265 -47 -35 c-65 -48 -90 -102 -92
-198 -1 -42 -4 -78 -6 -80 -1 -2 -25 13 -52 34 -26 20 -94 59 -150 86 l-102
49 73 72 c47 47 84 96 108 142 62 121 66 162 67 685 0 256 0 470 0 476 1 6 27
18 59 27 85 24 144 87 159 172 23 124 -61 247 -177 262 -33 5 -40 9 -40 28 0
39 -31 66 -83 72 -36 4 -48 10 -53 27 -3 11 -24 58 -46 103 -108 220 -331 387
-573 429 -67 11 -386 10 -455 -2z m476 -147 c194 -52 342 -171 429 -346 14
-27 25 -52 25 -55 0 -3 -317 -6 -706 -6 l-705 0 36 70 c92 174 255 297 450
339 106 23 380 22 471 -2z m590 -1256 c-1 -692 -2 -707 -22 -757 -43 -105
-125 -196 -217 -242 -85 -43 -153 -47 -627 -46 -432 1 -447 1 -512 23 -142 47
-248 160 -287 306 -7 27 -11 268 -11 731 l0 692 839 -1 839 0 -2 -706z m-1816
524 c0 -47 -2 -85 -5 -85 -4 0 -19 7 -35 15 -50 26 -57 94 -14 133 46 41 54
31 54 -63z m2015 59 c34 -37 33 -78 -4 -115 -16 -16 -34 -29 -40 -29 -7 0 -11
31 -11 85 0 95 11 107 55 59z m578 -886 c-21 -10 -43 -18 -49 -18 -10 0 -12
28 -5 72 1 4 22 -2 47 -15 l46 -22 -39 -17z m-303 -814 c5 -13 9 -127 9 -253
l0 -231 -70 0 -69 0 0 238 c0 248 1 257 44 280 27 14 75 -5 86 -34z m-1641
-128 c39 -83 87 -136 162 -176 118 -62 270 -52 376 27 50 36 123 129 123 155
0 31 29 56 63 54 l32 -3 0 -309 0 -309 -425 0 -425 0 -3 310 -2 310 35 1 c35
1 37 -1 64 -60z m531 56 c0 -9 -38 -60 -60 -80 -67 -60 -184 -68 -260 -18 -34
23 -80 77 -80 97 0 3 90 5 200 5 110 -1 200 -2 200 -4z m-772 -318 l-3 -299
-52 0 -53 -1 0 48 c0 26 -1 122 -1 213 0 91 1 200 1 243 l0 78 48 16 c26 8 50
12 55 8 4 -3 6 -141 5 -306z m1244 286 c9 0 10 -580 0 -581 -32 -6 -94 -3 -99
5 -5 7 -8 477 -4 583 1 22 2 22 49 8 26 -8 50 -15 54 -15z m-1493 -325 c0
-140 -3 -256 -7 -256 -4 -1 -20 -3 -36 -5 -16 -2 -39 -12 -50 -24 -20 -20 -21
-31 -22 -378 -1 -196 -2 -360 -3 -363 -1 -4 -84 -7 -185 -7 -195 1 -200 2
-191 47 2 11 6 69 10 128 3 59 8 133 10 163 2 30 7 98 10 150 4 52 8 106 10
120 2 14 7 45 10 70 20 143 116 329 235 451 64 67 180 158 202 159 3 0 6 -115
7 -255z m1709 216 c31 -21 78 -59 105 -83 l47 -44 0 -561 0 -560 -55 0 -54 0
0 311 c0 171 0 334 -1 362 0 67 -23 97 -73 97 l-37 0 0 259 c0 142 2 258 6
258 3 0 31 -17 62 -39z m429 -528 l-2 -117 -65 0 -65 0 -3 117 -3 117 70 0 69
0 -1 -117z m-529 -405 l2 -316 -172 2 -173 1 -1 105 c-2 94 -4 106 -24 122
-25 21 6 19 -470 19 l-355 0 -21 -24 c-19 -22 -21 -37 -20 -121 0 -56 -3 -97
-9 -99 -5 -2 -84 -3 -175 -3 l-165 1 -1 305 c0 168 1 310 3 315 2 7 274 10
791 9 l787 -1 3 -315z m527 -83 l0 -230 -67 -1 -68 0 0 226 c0 125 2 229 5
231 2 3 33 5 67 4 l63 -1 0 -229z m-1014 -142 c1 -10 2 -27 3 -38 4 -53 10
-52 -311 -51 l-298 1 -2 53 -2 52 304 0 c283 0 305 -1 306 -17z"/>
<path d="M1619 3818 c-25 -8 -49 -44 -49 -72 0 -7 9 -25 21 -40 33 -43 100
-31 120 21 22 57 -33 111 -92 91z"/>
<path d="M3033 3822 c-51 -8 -70 -85 -31 -122 37 -34 90 -25 112 19 30 58 -14
114 -81 103z"/>
<path d="M1769 3622 c-82 -5 -83 -8 -82 -262 1 -249 7 -276 83 -344 64 -58 78
-59 585 -59 453 0 461 0 510 22 27 12 64 38 81 57 55 59 62 99 64 331 1 198 0
210 -20 231 -11 12 -26 22 -33 23 -45 2 -1151 3 -1188 1z m1089 -141 c9 -1 12
-38 12 -151 0 -162 -8 -198 -52 -221 -16 -9 -147 -12 -469 -12 -484 0 -480 -1
-509 54 -14 26 -16 319 -2 328 7 4 939 6 1020 2z"/>
<path d="M2159 3341 c-74 -73 -89 -94 -89 -119 0 -37 33 -72 68 -72 28 0 188
148 203 188 17 44 -24 91 -80 92 -7 0 -54 -40 -102 -89z"/>
<path d="M2519 3383 c-41 -28 -99 -94 -105 -120 -13 -50 49 -98 95 -73 45 24
121 112 121 140 0 25 -31 58 -60 65 -15 3 -35 -1 -51 -12z"/>
</g>
</svg>
